<svg width="18.696655" height="18.696777" viewBox="0 0 18.6967 18.6968" fill="none" xmlns="http://www.w3.org/2000/svg" xmlns:xlink="http://www.w3.org/1999/xlink">
	<desc>
			Created with Pixso.
	</desc>
	<defs/>
	<path id="" d="M16.6934 6.48499e-05L2.00321 6.48499e-05C0.876401 6.48499e-05 -3.8147e-06 0.918203 -3.8147e-06 2.00328L-3.8147e-06 16.6935C-3.8147e-06 17.8203 0.876401 18.6967 2.00321 18.6967L7.72071 18.6967L7.72071 12.3532L5.09149 12.3532L5.09149 9.34839L7.72071 9.34839L7.72071 7.09477C7.72071 4.50729 9.26485 3.04662 11.6019 3.04662C12.7705 3.04662 13.939 3.25528 13.939 3.25528L13.939 5.80103L12.6453 5.80103C11.3515 5.80103 10.9342 6.59397 10.9342 7.42864L10.9342 9.34839L13.8138 9.34839L13.3547 12.3532L10.9342 12.3532L10.9342 18.6967L16.6934 18.6967C17.7785 18.6967 18.6966 17.8203 18.6966 16.6935L18.6966 2.00328C18.6966 0.918203 17.7785 6.48499e-05 16.6934 6.48499e-05Z" fill="#FFFFFF" fill-opacity="1.000000" fill-rule="evenodd"/>
</svg>
