<svg width="20.000000" height="20.000000" viewBox="0 0 20 20" fill="none" xmlns="http://www.w3.org/2000/svg" xmlns:xlink="http://www.w3.org/1999/xlink">
	<desc>
			Created with Pixso.
	</desc>
	<defs>
		<clipPath id="clip2_43">
			<rect id="icons8-instagram 1" width="20.000000" height="20.000000" fill="white" fill-opacity="0"/>
		</clipPath>
	</defs>
	<rect id="icons8-instagram 1" width="20.000000" height="20.000000" fill="#FFFFFF" fill-opacity="0"/>
	<g clip-path="url(#clip2_43)">
		<path id="Vector" d="M6.39995 1.19995C3.53183 1.19995 1.19995 3.53174 1.19995 6.3999L1.19995 13.5999C1.19995 16.468 3.53183 18.8 6.39995 18.8L13.5999 18.8C16.4681 18.8 18.8 16.468 18.8 13.5999L18.8 6.3999C18.8 3.53174 16.4681 1.19995 13.5999 1.19995L6.39995 1.19995ZM14.8 4.3999C15.2399 4.3999 15.5999 4.76001 15.5999 5.19995C15.5999 5.63989 15.2399 6 14.8 6C14.36 6 14 5.63989 14 5.19995C14 4.76001 14.36 4.3999 14.8 4.3999ZM9.99995 5.59985C12.4281 5.59985 14.3999 7.57178 14.3999 10C14.3999 12.428 12.4281 14.3999 9.99995 14.3999C7.57182 14.3999 5.59995 12.428 5.59995 10C5.59995 7.57178 7.57182 5.59985 9.99995 5.59985ZM9.99995 6.3999C8.01588 6.3999 6.39995 8.01587 6.39995 10C6.39995 11.9841 8.01588 13.5999 9.99995 13.5999C11.984 13.5999 13.5999 11.9841 13.5999 10C13.5999 8.01587 11.984 6.3999 9.99995 6.3999Z" fill="#FFFFFF" fill-opacity="1.000000" fill-rule="nonzero"/>
	</g>
</svg>
