<svg width="87.000000" height="41.894287" viewBox="0 0 87 41.8943" fill="none" xmlns="http://www.w3.org/2000/svg" xmlns:xlink="http://www.w3.org/1999/xlink">
	<desc>
			Created with Pixso.
	</desc>
	<defs/>
	<path id="FOREST" d="M1.098 21.636L1.098 7.056L7.092 7.056L7.092 8.892L3.762 8.892L3.762 13.14L6.48 13.14L6.48 14.994L3.762 14.994L3.762 21.636L1.098 21.636ZM12.4935 21.834C11.4615 21.834 10.6395 21.642 10.0275 21.258C9.41555 20.874 8.97755 20.322 8.71355 19.602C8.44955 18.882 8.31755 18.03 8.31755 17.046L8.31755 11.592C8.31755 10.608 8.44955 9.768 8.71355 9.072C8.97755 8.364 9.41555 7.824 10.0275 7.452C10.6395 7.08 11.4615 6.894 12.4935 6.894C13.5495 6.894 14.3775 7.08 14.9775 7.452C15.5895 7.824 16.0275 8.364 16.2915 9.072C16.5675 9.768 16.7055 10.608 16.7055 11.592L16.7055 17.064C16.7055 18.036 16.5675 18.882 16.2915 19.602C16.0275 20.31 15.5895 20.862 14.9775 21.258C14.3775 21.642 13.5495 21.834 12.4935 21.834ZM12.4935 19.872C12.9375 19.872 13.2615 19.776 13.4655 19.584C13.6815 19.392 13.8255 19.128 13.8975 18.792C13.9695 18.456 14.0055 18.09 14.0055 17.694L14.0055 10.98C14.0055 10.572 13.9695 10.206 13.8975 9.882C13.8255 9.558 13.6815 9.306 13.4655 9.126C13.2615 8.934 12.9375 8.838 12.4935 8.838C12.0735 8.838 11.7555 8.934 11.5395 9.126C11.3235 9.306 11.1795 9.558 11.1075 9.882C11.0355 10.206 10.9995 10.572 10.9995 10.98L10.9995 17.694C10.9995 18.09 11.0295 18.456 11.0895 18.792C11.1615 19.128 11.3055 19.392 11.5215 19.584C11.7375 19.776 12.0615 19.872 12.4935 19.872ZM18.6761 21.636L18.6761 7.056L22.1681 7.056C23.1521 7.056 23.9801 7.176 24.6521 7.416C25.3361 7.644 25.8521 8.04 26.2001 8.604C26.5601 9.168 26.7401 9.936 26.7401 10.908C26.7401 11.496 26.6861 12.024 26.5781 12.492C26.4701 12.96 26.2841 13.362 26.0201 13.698C25.7681 14.022 25.4141 14.274 24.9581 14.454L26.9921 21.636L24.3281 21.636L22.5641 14.958L21.3401 14.958L21.3401 21.636L18.6761 21.636ZM21.3401 13.284L22.1681 13.284C22.6841 13.284 23.0921 13.212 23.3921 13.068C23.7041 12.912 23.9261 12.672 24.0581 12.348C24.1901 12.012 24.2561 11.586 24.2561 11.07C24.2561 10.338 24.1181 9.792 23.8421 9.432C23.5781 9.06 23.0681 8.874 22.3121 8.874L21.3401 8.874L21.3401 13.284ZM28.7308 21.636L28.7308 7.056L34.8508 7.056L34.8508 8.928L31.3948 8.928L31.3948 13.122L34.1128 13.122L34.1128 14.976L31.3948 14.976L31.3948 19.8L34.8868 19.8L34.8868 21.636L28.7308 21.636ZM40.102 21.834C39.226 21.834 38.494 21.666 37.906 21.33C37.318 20.982 36.874 20.478 36.574 19.818C36.274 19.158 36.106 18.348 36.07 17.388L38.356 16.938C38.38 17.502 38.446 18 38.554 18.432C38.674 18.864 38.848 19.2 39.076 19.44C39.316 19.668 39.628 19.782 40.012 19.782C40.444 19.782 40.75 19.656 40.93 19.404C41.11 19.14 41.2 18.81 41.2 18.414C41.2 17.778 41.056 17.256 40.768 16.848C40.48 16.44 40.096 16.032 39.616 15.624L37.78 14.004C37.264 13.56 36.85 13.068 36.538 12.528C36.238 11.976 36.088 11.298 36.088 10.494C36.088 9.342 36.424 8.454 37.096 7.83C37.768 7.206 38.686 6.894 39.85 6.894C40.534 6.894 41.104 7.002 41.56 7.218C42.016 7.422 42.376 7.71 42.64 8.082C42.916 8.454 43.12 8.88 43.252 9.36C43.384 9.828 43.468 10.326 43.504 10.854L41.236 11.25C41.212 10.794 41.158 10.386 41.074 10.026C41.002 9.666 40.864 9.384 40.66 9.18C40.468 8.976 40.18 8.874 39.796 8.874C39.4 8.874 39.094 9.006 38.878 9.27C38.674 9.522 38.572 9.84 38.572 10.224C38.572 10.716 38.674 11.124 38.878 11.448C39.082 11.76 39.376 12.084 39.76 12.42L41.578 14.022C42.178 14.526 42.688 15.12 43.108 15.804C43.54 16.476 43.756 17.292 43.756 18.252C43.756 18.948 43.6 19.566 43.288 20.106C42.988 20.646 42.562 21.072 42.01 21.384C41.47 21.684 40.834 21.834 40.102 21.834ZM46.7826 21.636L46.7826 9.018L44.4606 9.018L44.4606 7.056L51.7326 7.056L51.7326 9.018L49.4466 9.018L49.4466 21.636L46.7826 21.636Z" fill="#FFFFFF" fill-opacity="1.000000" fill-rule="evenodd"/>
	<path id="INVERONMENTAL" d="M1.815 35.25L1.815 27L1.045 27L1.045 35.25L1.815 35.25ZM9.40242 35.25L9.40242 27L8.65442 27L8.67642 33.721L4.24342 27L3.68242 27L3.68242 35.25L4.43042 35.25L4.40842 28.529L8.84142 35.25L9.40242 35.25ZM16.0896 27L13.7466 34.106L11.4036 27L10.5566 27L13.4716 35.36L14.0216 35.36L16.9366 27L16.0896 27ZM22.4877 30.608L18.8357 30.608L18.8357 27.693L22.8727 27.693L22.8727 27L18.0877 27L18.0877 35.25L22.8727 35.25L22.8727 34.557L18.8357 34.557L18.8357 31.301L22.4877 31.301L22.4877 30.608ZM25.1091 31.642L27.0121 31.642C27.1331 31.642 27.2541 31.642 27.3751 31.631L29.2231 35.25L30.0921 35.25L28.1231 31.51C29.2561 31.213 29.6411 30.421 29.6411 29.321C29.6411 27.902 29.0031 27 26.9461 27L24.3611 27L24.3611 35.25L25.1091 35.25L25.1091 31.642ZM25.1091 27.693L27.1441 27.693C28.6071 27.693 28.8271 28.441 28.8271 29.321C28.8271 30.201 28.6071 30.949 27.1441 30.949L25.1091 30.949L25.1091 27.693ZM34.1082 34.667C32.1172 34.667 31.8202 33.105 31.8202 31.125C31.8202 29.145 32.1172 27.583 34.1082 27.583C36.0992 27.583 36.3962 29.145 36.3962 31.125C36.3962 33.105 36.0992 34.667 34.1082 34.667ZM34.1082 35.36C36.8032 35.36 37.1882 33.281 37.1882 31.125C37.1882 28.969 36.8032 26.89 34.1082 26.89C31.4132 26.89 31.0282 28.969 31.0282 31.125C31.0282 33.281 31.4132 35.36 34.1082 35.36ZM44.3897 35.25L44.3897 27L43.6417 27L43.6637 33.721L39.2307 27L38.6697 27L38.6697 35.25L39.4177 35.25L39.3957 28.529L43.8287 35.25L44.3897 35.25ZM52.9249 27.979L52.8809 35.25L53.6289 35.25L53.6289 27L52.6169 27L49.8339 33.072L47.0509 27L46.0389 27L46.0389 35.25L46.7869 35.25L46.7429 27.979L49.5259 33.985L50.1419 33.985L52.9249 27.979ZM59.6771 30.608L56.0252 30.608L56.0252 27.693L60.0621 27.693L60.0621 27L55.2771 27L55.2771 35.25L60.0621 35.25L60.0621 34.557L56.0252 34.557L56.0252 31.301L59.6771 31.301L59.6771 30.608ZM67.2706 35.25L67.2706 27L66.5226 27L66.5446 33.721L62.1116 27L61.5506 27L61.5506 35.25L62.2986 35.25L62.2766 28.529L66.7096 35.25L67.2706 35.25ZM73.8257 27.693L73.8257 27L68.5237 27L68.5237 27.693L70.8007 27.693L70.8007 35.25L71.5487 35.25L71.5487 27.693L73.8257 27.693ZM74.4911 35.25L75.2501 32.94L78.4181 32.94L79.1771 35.25L80.0241 35.25L77.1091 26.89L76.5591 26.89L73.6441 35.25L74.4911 35.25ZM76.8341 28.144L78.1981 32.291L75.4591 32.291L76.8341 28.144ZM81.8708 27L81.1228 27L81.1228 35.25L85.6879 35.25L85.6879 34.557L81.8708 34.557L81.8708 27Z" fill="#FFFFFF" fill-opacity="1.000000" fill-rule="evenodd"/>
	<line id="Line 11" x1="1.000000" y1="40.894287" x2="60.000000" y2="40.894287" stroke="#86DA44" stroke-opacity="1.000000" stroke-width="2.000000"/>
</svg>
